<?xml version="1.0" standalone="no"?>
<!DOCTYPE svg PUBLIC "-//W3C//DTD SVG 20010904//EN"
 "http://www.w3.org/TR/2001/REC-SVG-20010904/DTD/svg10.dtd">
<svg version="1.0" xmlns="http://www.w3.org/2000/svg"
 width="917.000000pt" height="301.000000pt" viewBox="0 0 917.000000 301.000000"
 preserveAspectRatio="xMidYMid meet">

<g transform="translate(0.000000,301.000000) scale(0.100000,-0.100000)"
fill="#ffffff" stroke="none">
<path d="M402 2999 c-175 -23 -332 -163 -377 -334 -22 -88 -23 -2231 0 -2318
44 -169 163 -288 332 -332 87 -23 2216 -22 2312 0 130 31 244 126 304 252 l32
68 3 1149 c2 1139 2 1151 -18 1212 -42 126 -151 237 -281 285 l-64 24 -1090 1
c-600 1 -1119 -2 -1153 -7z m2108 -1061 l0 -833 -203 -53 c-111 -29 -205 -52
-209 -52 -4 0 -9 42 -10 93 l-3 92 -525 107 c-289 58 -546 109 -572 113 l-48
7 0 -395 c0 -218 3 -398 8 -400 6 -4 193 44 717 183 465 123 836 220 840 220
3 0 5 -58 5 -128 l0 -128 -232 -62 c-128 -33 -431 -113 -673 -177 -827 -219
-1080 -285 -1087 -285 -5 0 -8 373 -8 829 l0 829 83 21 c45 12 139 38 208 57
70 18 129 34 133 34 3 0 6 -43 6 -95 0 -52 2 -95 4 -95 8 0 1101 -221 1119
-226 16 -5 17 18 17 395 0 231 -4 401 -9 401 -7 0 -276 -70 -576 -150 -38 -10
-241 -64 -450 -119 -209 -55 -412 -108 -452 -119 -39 -11 -74 -18 -77 -14 -3
3 -6 61 -6 128 l0 123 38 10 c37 10 500 132 667 176 463 122 1282 340 1293
344 1 1 2 -374 2 -831z"/>
<path d="M5020 2775 l0 -55 -165 0 -165 0 0 -100 0 -100 470 0 470 0 0 100 0
100 -170 0 -170 0 0 55 0 55 -135 0 -135 0 0 -55z"/>
<path d="M4195 2808 c-3 -7 -4 -359 -3 -783 l3 -770 133 -3 132 -3 0 786 0
785 -130 0 c-95 0 -132 -3 -135 -12z"/>
<path d="M5710 2400 l0 -420 135 0 135 0 0 420 0 420 -135 0 -135 0 0 -420z"/>
<path d="M6370 2615 l0 -105 420 0 420 0 0 -60 0 -60 -420 0 -420 0 0 -280 0
-280 205 0 205 0 0 -100 0 -100 -285 0 -285 0 0 -110 0 -110 710 0 710 0 0
110 0 110 -290 0 -291 0 3 98 3 97 233 3 232 2 0 105 0 105 -442 2 -443 3 0
65 0 65 423 3 422 2 0 270 0 270 -555 0 -555 0 0 -105z"/>
<path d="M7880 2575 l0 -105 421 0 422 0 -6 -232 c-4 -152 -13 -277 -26 -358
-10 -69 -18 -126 -18 -126 5 -4 261 -24 263 -21 8 8 25 117 39 252 10 92 15
244 15 420 l0 275 -555 0 -555 0 0 -105z"/>
<path d="M3220 2148 l0 -521 258 6 c238 6 381 18 557 48 39 7 74 15 79 20 4 4
3 55 -4 114 l-13 107 -41 -7 c-190 -30 -428 -55 -532 -55 l-44 0 0 405 0 405
-130 0 -130 0 0 -522z"/>
<path d="M5023 2486 c-171 -40 -254 -119 -254 -245 -1 -130 88 -214 258 -247
97 -18 175 -18 270 2 172 35 253 114 253 246 0 111 -67 187 -198 229 -87 27
-244 34 -329 15z m242 -200 c34 -22 34 -69 1 -91 -30 -20 -118 -29 -170 -18
-24 5 -47 19 -59 35 -19 25 -19 28 -3 52 9 14 31 30 49 35 45 14 152 7 182
-13z"/>
<path d="M4920 1835 l0 -95 398 -2 397 -3 3 -22 3 -23 -400 0 -401 0 0 -215 0
-215 550 0 551 0 -3 98 -3 97 -412 3 -413 2 0 25 0 25 395 0 395 0 0 210 0
210 -530 0 -530 0 0 -95z"/>
<path d="M7740 1550 l0 -110 710 0 710 0 0 110 0 110 -710 0 -710 0 0 -110z"/>
<path d="M7510 1162 c-127 -34 -227 -114 -279 -225 -38 -80 -51 -148 -51 -255
0 -164 50 -293 146 -381 89 -82 198 -121 334 -121 239 0 414 134 466 357 21
88 14 264 -12 343 -42 126 -148 232 -274 274 -80 27 -246 31 -330 8z m235
-201 c97 -43 139 -139 133 -300 -3 -85 -7 -105 -33 -156 -20 -40 -45 -69 -73
-90 -38 -26 -52 -30 -112 -30 -91 0 -141 33 -185 120 -26 53 -30 72 -33 162
-3 77 0 115 13 154 32 96 113 159 205 159 25 0 63 -9 85 -19z"/>
<path d="M8700 1173 c-197 -33 -360 -184 -399 -371 -39 -185 10 -373 127 -484
69 -66 118 -93 219 -119 149 -38 311 -19 438 50 l70 37 3 232 2 232 -195 0
-195 0 0 -95 0 -95 85 0 85 0 0 -75 c0 -84 -5 -91 -83 -101 -109 -15 -228 40
-274 128 -26 49 -28 61 -28 168 0 100 3 120 22 157 74 138 238 183 378 104
l56 -32 57 62 c31 34 60 67 65 75 14 25 -99 93 -200 119 -53 14 -174 18 -233
8z"/>
<path d="M3220 680 l0 -480 116 0 116 0 -6 277 c-3 153 -8 303 -11 333 l-5 55
62 -121 c35 -67 117 -216 183 -332 l120 -211 128 -1 127 0 0 480 0 480 -115 0
-115 0 0 -232 c1 -130 6 -276 14 -330 7 -54 10 -98 7 -98 -3 0 -21 33 -39 73
-18 39 -99 188 -180 329 l-147 258 -127 0 -128 0 0 -480z"/>
<path d="M4300 680 l0 -480 125 0 125 0 0 480 0 480 -125 0 -125 0 0 -480z"/>
<path d="M4790 680 l0 -480 125 0 125 0 0 200 0 200 175 0 175 0 0 -200 0
-200 120 0 120 0 0 480 0 480 -120 0 -120 0 0 -180 0 -180 -175 0 -175 0 0
180 0 180 -125 0 -125 0 0 -480z"/>
<path d="M5890 680 l0 -480 125 0 125 0 0 480 0 480 -125 0 -125 0 0 -480z"/>
<path d="M6380 680 l0 -480 330 0 331 0 -3 97 -3 98 -202 3 -203 2 0 380 0
380 -125 0 -125 0 0 -480z"/>
</g>
</svg>